<svg width="212" height="212" viewBox="0 0 212 212" fill="none" xmlns="http://www.w3.org/2000/svg">
<rect width="212" height="212" fill="white"/>
<path fill-rule="evenodd" clip-rule="evenodd" d="M127.798 101.802C139.536 111.007 161.207 128.001 136.546 153.329C109.978 180.614 62.1953 161.937 52.498 131.151C42.8007 100.364 63.6488 72.0959 79.6264 63.6507C78.3822 62.9449 76.1961 40.7615 79.6263 39.0386C87.2951 35.1868 107.196 34.7119 127.096 39.0384C146.997 43.365 174.804 65.7637 160.927 81.8855C149.826 94.7829 124.616 92.8465 113.399 90.2661L125.279 99.8052C126.042 100.424 126.89 101.09 127.798 101.802ZM117.826 138.347C127.23 124.727 121.858 111.985 116.319 105.168C126.812 108.193 134.178 117.981 133.491 129.088C132.693 141.986 121.339 151.78 108.132 150.963C94.9243 150.146 84.8641 139.028 85.6618 126.13C85.9964 120.72 88.1883 115.855 91.5953 112.092C99.8708 104.878 117.982 129.582 117.826 138.347Z" fill="black"/>
<mask id="mask0_1_633" style="mask-type:alpha" maskUnits="userSpaceOnUse" x="50" y="42" width="115" height="125">
<path d="M136.544 153.329C163.112 126.043 135.906 108.429 125.277 99.8056L113.397 90.2664C124.615 92.8468 149.825 94.7833 160.926 81.8858C174.802 65.7641 149.337 44.0647 124.721 42.5423C100.104 41.0199 80.2836 53.0007 78.0879 57.2671C76.3313 60.6803 78.3807 62.9452 79.6249 63.6511C63.6473 72.0962 42.7992 100.365 52.4965 131.151C62.1938 161.937 109.976 180.615 136.544 153.329Z" fill="#AAE166"/>
</mask>
<g mask="url(#mask0_1_633)">
<path d="M84.8851 87.2455C63.2234 88.6101 57.8367 83.3296 54.9274 82.2483C52.4222 84.2568 46.1107 92.0955 42.5843 96.6099C41.8153 97.013 42.6263 101.436 56.3312 101.202C73.4624 100.909 87.6833 90.1228 84.8851 87.2455Z" fill="white"/>
<path d="M70.2863 108.322C53.5286 114.236 48.0629 111.431 45.52 111.263C44.0096 113.355 40.8465 120.739 39.1103 124.967C38.5974 125.447 40.2586 128.629 51.0062 125.366C64.4407 121.288 73.1566 109.881 70.2863 108.322Z" fill="white"/>
<path d="M67.6076 130.797C50.8499 136.71 45.3841 133.906 42.8413 133.738C41.3309 135.83 38.1677 143.214 36.4316 147.442C35.9187 147.921 37.5799 151.104 48.3275 147.841C61.762 143.762 70.4779 132.356 67.6076 130.797Z" fill="white"/>
</g>
<path d="M142.74 88.3078C153.69 94.5192 154.003 124.851 145.414 138.784C134.429 132.445 135.387 124.861 133.979 115.437C132.535 105.775 138.542 93.7082 138.542 93.7082L142.74 88.3078Z" fill="black"/>
<path d="M117.307 99.9409C132.744 104.04 153.321 90.6386 157.078 85.4206C152.42 87.8577 137.038 94.9981 123.974 89.6621C107.643 82.9921 101.871 95.8417 117.307 99.9409Z" fill="white"/>
<path d="M105.444 66.505C86.6846 67.8603 81.7333 64.6193 79.2189 63.6253C77.042 65.5031 71.8909 67.5743 68.82 71.7866C68.1526 72.1646 69.7844 72.8525 81.6504 72.5801C96.4828 72.2396 107.855 69.1696 105.444 66.505Z" fill="white"/>
<ellipse cx="126.698" cy="66.562" rx="15.4259" ry="15.0645" transform="rotate(3.53899 126.698 66.562)" fill="white"/>
<path d="M129.032 49.5987C137.27 50.1082 143.526 57.0394 143.03 65.0567C142.534 73.0741 135.472 79.1816 127.233 78.6721C118.995 78.1625 112.739 71.2314 113.235 63.2141C113.731 55.1968 120.793 49.0892 129.032 49.5987Z" fill="white" stroke="black"/>
<ellipse cx="126.325" cy="62.1374" rx="4.49922" ry="4.39382" transform="rotate(3.53899 126.325 62.1374)" fill="black"/>
<ellipse cx="156.422" cy="75.3182" rx="1.92824" ry="1.88307" transform="rotate(3.53899 156.422 75.3182)" fill="white"/>
<path d="M87.0249 151.255C89.1182 155.151 84.2016 160.498 76.6611 164.348C69.1207 168.198 61.5353 168.578 59.7186 165.197C57.9019 161.816 62.5419 155.955 70.0824 152.105C77.6228 148.255 84.9317 147.36 87.0249 151.255Z" fill="black"/>
<path d="M95.5351 159.409C97.749 159.827 98.3674 163.383 97.5696 167.476C96.7718 171.568 94.5674 174.592 92.646 174.229C90.7246 173.867 89.8137 170.255 90.6115 166.163C91.4093 162.07 93.3212 158.991 95.5351 159.409Z" fill="black"/>
</svg>
